<svg height="810" style="font-family: 'Recursive', sans-serif;" viewBox="0 0 330 990" width="330" xmlns="http://www.w3.org/2000/svg">
<defs>
<style>
@font-face {
    font-family: 'Recursive';
    src: url('https://fonts.googleapis.com/css2?family=Recursive:wght,CASL@500,1&amp;display=swap');
  }
</style>
</defs>
<rect fill="#1b1a17" height="100%" width="100%"/>
<text fill="#F1EFDC" font-size="20" text-anchor="middle" x="60" y="20">
2020
</text>
<circle cx="50" cy="55" fill="#3e6d9c" r="7"/>
<circle cx="70" cy="55" fill="#3e6d9c" r="7"/>
<circle cx="50" cy="85" fill="#3e6d9c" r="7"/>
<circle cx="70" cy="85" fill="#3e6d9c" r="7"/>
<circle cx="50" cy="115" fill="#3e6d9c" r="7"/>
<circle cx="70" cy="115" fill="#3e6d9c" r="7"/>
<circle cx="50" cy="145" fill="#3e6d9c" r="7"/>
<circle cx="70" cy="145" fill="#3e6d9c" r="7"/>
<circle cx="50" cy="175" fill="#3e6d9c" r="7"/>
<circle cx="70" cy="175" fill="#3e6d9c" r="7"/>
<circle cx="50" cy="205" fill="#fd841f" r="7"/>
<circle cx="70" cy="205" fill="#fd841f" r="7"/>
<circle cx="50" cy="235" fill="#fd841f" r="7"/>
<circle cx="70" cy="235" fill="#fd841f" r="7"/>
<circle cx="50" cy="265" fill="#3e6d9c" r="7"/>
<circle cx="70" cy="265" fill="#fd841f" r="7"/>
<circle cx="50" cy="295" fill="#fd841f" r="7"/>
<circle cx="70" cy="295" fill="#fd841f" r="7"/>
<circle cx="50" cy="325" fill="#3e6d9c" r="7"/>
<circle cx="70" cy="325" fill="#fd841f" r="7"/>
<text fill="#F1EFDC" font-size="20" text-anchor="middle" x="160" y="20">
2021
</text>
<circle cx="150" cy="55" fill="#3e6d9c" r="7"/>
<circle cx="170" cy="55" fill="#3e6d9c" r="7"/>
<circle cx="150" cy="85" fill="#3e6d9c" r="7"/>
<circle cx="170" cy="85" fill="#3e6d9c" r="7"/>
<circle cx="150" cy="115" fill="#3e6d9c" r="7"/>
<circle cx="170" cy="115" fill="#3e6d9c" r="7"/>
<circle cx="150" cy="145" fill="#3e6d9c" r="7"/>
<circle cx="170" cy="145" fill="#3e6d9c" r="7"/>
<circle cx="150" cy="175" fill="#3e6d9c" r="7"/>
<circle cx="170" cy="175" fill="#3e6d9c" r="7"/>
<circle cx="150" cy="205" fill="#3e6d9c" r="7"/>
<circle cx="170" cy="205" fill="#3e6d9c" r="7"/>
<circle cx="150" cy="235" fill="#3e6d9c" r="7"/>
<circle cx="170" cy="235" fill="#3e6d9c" r="7"/>
<circle cx="150" cy="265" fill="#3e6d9c" r="7"/>
<circle cx="170" cy="265" fill="#3e9c6d" r="7"/>
<circle cx="150" cy="295" fill="#3e9c6d" r="7"/>
<circle cx="170" cy="295" fill="#3e9c6d" r="7"/>
<circle cx="150" cy="325" fill="#3e9c6d" r="7"/>
<circle cx="170" cy="325" fill="#3e9c6d" r="7"/>
<circle cx="150" cy="355" fill="#3e9c6d" r="7"/>
<circle cx="170" cy="355" fill="#3e9c6d" r="7"/>
<circle cx="150" cy="385" fill="#3e9c6d" r="7"/>
<circle cx="170" cy="385" fill="#3e9c6d" r="7"/>
<circle cx="150" cy="415" fill="#3e9c6d" r="7"/>
<circle cx="170" cy="415" fill="#3e9c6d" r="7"/>
<circle cx="150" cy="445" fill="#3e9c6d" r="7"/>
<circle cx="170" cy="445" fill="#3e9c6d" r="7"/>
<circle cx="150" cy="475" fill="#3e9c6d" r="7"/>
<circle cx="170" cy="475" fill="#3e9c6d" r="7"/>
<circle cx="150" cy="505" fill="#3e9c6d" r="7"/>
<circle cx="170" cy="505" fill="#3e9c6d" r="7"/>
<circle cx="150" cy="535" fill="#3e9c6d" r="7"/>
<circle cx="170" cy="535" fill="#3e9c6d" r="7"/>
<circle cx="150" cy="565" fill="#e14d2a" r="7"/>
<text fill="#F1EFDC" font-size="20" text-anchor="middle" x="260" y="20">
2022
</text>
<circle cx="250" cy="55" fill="#3e6d9c" r="7"/>
<circle cx="270" cy="55" fill="#3e6d9c" r="7"/>
<circle cx="250" cy="85" fill="#3e6d9c" r="7"/>
<circle cx="270" cy="85" fill="#3e6d9c" r="7"/>
<circle cx="250" cy="115" fill="#3e6d9c" r="7"/>
<circle cx="270" cy="115" fill="#3e6d9c" r="7"/>
<circle cx="250" cy="145" fill="#3e6d9c" r="7"/>
<circle cx="270" cy="145" fill="#3e6d9c" r="7"/>
<circle cx="250" cy="175" fill="#3e6d9c" r="7"/>
<circle cx="270" cy="175" fill="#3e6d9c" r="7"/>
<circle cx="250" cy="205" fill="#3e6d9c" r="7"/>
<circle cx="270" cy="205" fill="#3e6d9c" r="7"/>
<circle cx="250" cy="235" fill="#3e6d9c" r="7"/>
<circle cx="270" cy="235" fill="#3e6d9c" r="7"/>
<circle cx="250" cy="265" fill="#3e9c6d" r="7"/>
<circle cx="270" cy="265" fill="#3e9c6d" r="7"/>
<circle cx="250" cy="295" fill="#3e6d9c" r="7"/>
<circle cx="270" cy="295" fill="#3e6d9c" r="7"/>
<circle cx="250" cy="325" fill="#fd841f" r="7"/>
<circle cx="270" cy="325" fill="#fd841f" r="7"/>
<text fill="#F1EFDC" font-size="10" x="10" y="60">
01
</text>
<text fill="#F1EFDC" font-size="10" x="10" y="90">
02
</text>
<text fill="#F1EFDC" font-size="10" x="10" y="120">
03
</text>
<text fill="#F1EFDC" font-size="10" x="10" y="150">
04
</text>
<text fill="#F1EFDC" font-size="10" x="10" y="180">
05
</text>
<line stroke="#7D9D9C" x1="10" x2="300" y1="190" y2="190"/>
<text fill="#F1EFDC" font-size="10" x="10" y="210">
06
</text>
<text fill="#F1EFDC" font-size="10" x="10" y="240">
07
</text>
<line stroke="#576F72" stroke-dasharray="5,5" x1="10" x2="300" y1="250" y2="250"/>
<text fill="#F1EFDC" font-size="10" x="10" y="270">
08
</text>
<text fill="#F1EFDC" font-size="10" x="10" y="300">
09
</text>
<text fill="#F1EFDC" font-size="10" x="10" y="330">
10
</text>
<line stroke="#7D9D9C" x1="10" x2="300" y1="340" y2="340"/>
<text fill="#F1EFDC" font-size="10" x="10" y="360">
11
</text>
<text fill="#F1EFDC" font-size="10" x="10" y="390">
12
</text>
<text fill="#F1EFDC" font-size="10" x="10" y="420">
13
</text>
<text fill="#F1EFDC" font-size="10" x="10" y="450">
14
</text>
<line stroke="#576F72" stroke-dasharray="5,5" x1="10" x2="300" y1="460" y2="460"/>
<text fill="#F1EFDC" font-size="10" x="10" y="480">
15
</text>
<line stroke="#7D9D9C" x1="10" x2="300" y1="490" y2="490"/>
<text fill="#F1EFDC" font-size="10" x="10" y="510">
16
</text>
<text fill="#F1EFDC" font-size="10" x="10" y="540">
17
</text>
<text fill="#F1EFDC" font-size="10" x="10" y="570">
18
</text>
<text fill="#F1EFDC" font-size="10" x="10" y="600">
19
</text>
<text fill="#F1EFDC" font-size="10" x="10" y="630">
20
</text>
<line stroke="#7D9D9C" x1="10" x2="300" y1="640" y2="640"/>
<text fill="#F1EFDC" font-size="10" x="10" y="660">
21
</text>
<line stroke="#576F72" stroke-dasharray="5,5" x1="10" x2="300" y1="670" y2="670"/>
<text fill="#F1EFDC" font-size="10" x="10" y="690">
22
</text>
<text fill="#F1EFDC" font-size="10" x="10" y="720">
23
</text>
<text fill="#F1EFDC" font-size="10" x="10" y="750">
24
</text>
<text fill="#F1EFDC" font-size="10" x="10" y="780">
25
</text>
<line stroke="#7D9D9C" x1="10" x2="300" y1="790" y2="790"/>
<text fill="#F1EFDC" font-size="20" text-anchor="left" x="23" y="820">
Legend
</text>
<circle cx="30" cy="840" fill="#3e6d9c" r="7"/>
<text fill="#F1EFDC" font-size="10" x="60" y="840">

Done

</text>
<circle cx="30" cy="870" fill="#9c3e6d" r="7"/>
<text fill="#F1EFDC" font-size="10" x="60" y="870">

Started

</text>
<circle cx="30" cy="900" fill="#3e9c6d" r="7"/>
<text fill="#F1EFDC" font-size="10" x="60" y="900">

Prototype

</text>
<circle cx="30" cy="930" fill="#fd841f" r="7"/>
<text fill="#F1EFDC" font-size="10" x="60" y="930">

Improvable

</text>
<circle cx="30" cy="960" fill="#e14d2a" r="7"/>
<text fill="#F1EFDC" font-size="10" x="60" y="960">

Failing

</text>
</svg>