<?xml version="1.0" encoding="UTF-8" standalone="no"?>
<!DOCTYPE svg PUBLIC "-//W3C//DTD SVG 1.1//EN"
 "http://www.w3.org/Graphics/SVG/1.1/DTD/svg11.dtd">
<!-- Generated by graphviz version 7.0.3 (0)
 -->
<!-- Title: Tunnels Pages: 1 -->
<svg width="672pt" height="331pt"
 viewBox="0.00 0.00 672.30 330.93" xmlns="http://www.w3.org/2000/svg" xmlns:xlink="http://www.w3.org/1999/xlink">
<g id="graph0" class="graph" transform="scale(1 1) rotate(0) translate(4 326.93)">
<title>Tunnels</title>
<polygon fill="white" stroke="none" points="-4,4 -4,-326.93 668.3,-326.93 668.3,4 -4,4"/>
<!-- AA -->
<g id="node1" class="node">
<title>AA</title>
<ellipse fill="none" stroke="black" cx="509.99" cy="-168.95" rx="35.19" ry="18"/>
<text text-anchor="middle" x="509.99" y="-165.25" font-family="Times,serif" font-size="14.00">AA: 0</text>
</g>
<!-- BB -->
<g id="node2" class="node">
<title>BB</title>
<ellipse fill="none" stroke="black" cx="554.31" cy="-263.92" rx="42.49" ry="18"/>
<text text-anchor="middle" x="554.31" y="-260.22" font-family="Times,serif" font-size="14.00">BB: 13</text>
</g>
<!-- AA&#45;&#45;BB -->
<g id="edge9" class="edge">
<title>AA&#45;&#45;BB</title>
<path fill="none" stroke="black" d="M518.32,-186.81C526.2,-203.68 537.95,-228.86 545.86,-245.81"/>
<text text-anchor="middle" x="527.09" y="-220.11" font-family="Times,serif" font-size="14.00">1</text>
</g>
<!-- DD -->
<g id="node4" class="node">
<title>DD</title>
<ellipse fill="none" stroke="black" cx="416.48" cy="-210.72" rx="42.79" ry="18"/>
<text text-anchor="middle" x="416.48" y="-207.02" font-family="Times,serif" font-size="14.00">DD: 20</text>
</g>
<!-- AA&#45;&#45;DD -->
<g id="edge5" class="edge">
<title>AA&#45;&#45;DD</title>
<path fill="none" stroke="black" d="M483.19,-180.92C471.64,-186.08 458.09,-192.13 446.23,-197.43"/>
<text text-anchor="middle" x="459.71" y="-177.97" font-family="Times,serif" font-size="14.00">1</text>
</g>
<!-- II -->
<g id="node9" class="node">
<title>II</title>
<ellipse fill="none" stroke="black" cx="565.58" cy="-87.43" rx="29.5" ry="18"/>
<text text-anchor="middle" x="565.58" y="-83.73" font-family="Times,serif" font-size="14.00">II: 0</text>
</g>
<!-- AA&#45;&#45;II -->
<g id="edge8" class="edge">
<title>AA&#45;&#45;II</title>
<path fill="none" stroke="black" d="M521.78,-151.66C531.28,-137.73 544.56,-118.26 554,-104.41"/>
<text text-anchor="middle" x="532.89" y="-131.83" font-family="Times,serif" font-size="14.00">1</text>
</g>
<!-- CC -->
<g id="node3" class="node">
<title>CC</title>
<ellipse fill="none" stroke="black" cx="462.04" cy="-304.93" rx="36.29" ry="18"/>
<text text-anchor="middle" x="462.04" y="-301.23" font-family="Times,serif" font-size="14.00">CC: 2</text>
</g>
<!-- BB&#45;&#45;CC -->
<g id="edge6" class="edge">
<title>BB&#45;&#45;CC</title>
<path fill="none" stroke="black" d="M524.61,-277.12C513.33,-282.13 500.55,-287.81 489.49,-292.73"/>
<text text-anchor="middle" x="502.05" y="-273.72" font-family="Times,serif" font-size="14.00">1</text>
</g>
<!-- CC&#45;&#45;DD -->
<g id="edge1" class="edge">
<title>CC&#45;&#45;DD</title>
<path fill="none" stroke="black" d="M453.47,-287.21C445.37,-270.47 433.3,-245.5 425.16,-228.68"/>
<text text-anchor="middle" x="434.32" y="-261.75" font-family="Times,serif" font-size="14.00">1</text>
</g>
<!-- EE -->
<g id="node5" class="node">
<title>EE</title>
<ellipse fill="none" stroke="black" cx="319.77" cy="-193.66" rx="36.29" ry="18"/>
<text text-anchor="middle" x="319.77" y="-189.96" font-family="Times,serif" font-size="14.00">EE: 3</text>
</g>
<!-- DD&#45;&#45;EE -->
<g id="edge7" class="edge">
<title>DD&#45;&#45;EE</title>
<path fill="none" stroke="black" d="M376.59,-203.68C369.2,-202.38 361.54,-201.03 354.33,-199.75"/>
<text text-anchor="middle" x="367.96" y="-190.52" font-family="Times,serif" font-size="14.00">1</text>
</g>
<!-- FF -->
<g id="node6" class="node">
<title>FF</title>
<ellipse fill="none" stroke="black" cx="225.92" cy="-187.7" rx="34.39" ry="18"/>
<text text-anchor="middle" x="225.92" y="-184" font-family="Times,serif" font-size="14.00">FF: 0</text>
</g>
<!-- EE&#45;&#45;FF -->
<g id="edge4" class="edge">
<title>EE&#45;&#45;FF</title>
<path fill="none" stroke="black" d="M283.49,-191.35C275.85,-190.87 267.82,-190.36 260.26,-189.88"/>
<text text-anchor="middle" x="266.88" y="-194.41" font-family="Times,serif" font-size="14.00">1</text>
</g>
<!-- GG -->
<g id="node7" class="node">
<title>GG</title>
<ellipse fill="none" stroke="black" cx="133.56" cy="-178.81" rx="37.09" ry="18"/>
<text text-anchor="middle" x="133.56" y="-175.11" font-family="Times,serif" font-size="14.00">GG: 0</text>
</g>
<!-- FF&#45;&#45;GG -->
<g id="edge3" class="edge">
<title>FF&#45;&#45;GG</title>
<path fill="none" stroke="black" d="M191.79,-184.41C184.81,-183.74 177.42,-183.03 170.34,-182.35"/>
<text text-anchor="middle" x="176.07" y="-187.18" font-family="Times,serif" font-size="14.00">1</text>
</g>
<!-- HH -->
<g id="node8" class="node">
<title>HH</title>
<ellipse fill="none" stroke="black" cx="44.2" cy="-155.8" rx="44.39" ry="18"/>
<text text-anchor="middle" x="44.2" y="-152.1" font-family="Times,serif" font-size="14.00">HH: 22</text>
</g>
<!-- GG&#45;&#45;HH -->
<g id="edge10" class="edge">
<title>GG&#45;&#45;HH</title>
<path fill="none" stroke="black" d="M100.29,-170.24C94.33,-168.71 88.09,-167.1 82.01,-165.54"/>
<text text-anchor="middle" x="93.65" y="-156.69" font-family="Times,serif" font-size="14.00">1</text>
</g>
<!-- JJ -->
<g id="node10" class="node">
<title>JJ</title>
<ellipse fill="none" stroke="black" cx="629.2" cy="-18" rx="35.19" ry="18"/>
<text text-anchor="middle" x="629.2" y="-14.3" font-family="Times,serif" font-size="14.00">JJ: 21</text>
</g>
<!-- II&#45;&#45;JJ -->
<g id="edge2" class="edge">
<title>II&#45;&#45;JJ</title>
<path fill="none" stroke="black" d="M580.34,-71.32C590.47,-60.27 603.88,-45.64 614.08,-34.5"/>
<text text-anchor="middle" x="592.21" y="-56.71" font-family="Times,serif" font-size="14.00">1</text>
</g>
</g>
</svg>
